<svg xmlns="http://www.w3.org/2000/svg" width="24" height="24" fill="none" viewBox="0 0 24 24"><path fill="url(#paint0_linear_1233_4816)" fill-rule="evenodd" d="M4 3C3.44772 3 3 3.44772 3 4V20C3 20.5523 3.44772 21 4 21H11V15.5H9.5C8.94772 15.5 8.5 15.0523 8.5 14.5V11C8.5 10.4477 8.94772 10 9.5 10H11V8C11 5.51472 13.0147 3.5 15.5 3.5H19C19.5523 3.5 20 3.94772 20 4.5V8C20 8.55228 19.5523 9 19 9H17.5C17.2239 9 17 9.22386 17 9.5V10H19C19.3138 10 19.6094 10.1473 19.7983 10.3978C19.9873 10.6483 20.0477 10.973 19.9615 11.2747L18.9615 14.7747C18.8389 15.204 18.4465 15.5 18 15.5H17V21H20C20.5523 21 21 20.5523 21 20V4C21 3.44772 20.5523 3 20 3H4ZM1 4C1 2.34315 2.34315 1 4 1H20C21.6569 1 23 2.34315 23 4V20C23 21.6569 21.6569 23 20 23H16C15.4477 23 15 22.5523 15 22V14.5C15 13.9477 15.4477 13.5 16 13.5H17.2457L17.6743 12H16C15.4477 12 15 11.5523 15 11V9.5C15 8.11929 16.1193 7 17.5 7H18V5.5H15.5C14.1193 5.5 13 6.61929 13 8V11C13 11.5523 12.5523 12 12 12H10.5V13.5H12C12.5523 13.5 13 13.9477 13 14.5V22C13 22.5523 12.5523 23 12 23H4C2.34315 23 1 21.6569 1 20V4Z" clip-rule="evenodd"/><defs><linearGradient id="paint0_linear_1233_4816" x1="12" x2="12" y1="1" y2="23" gradientUnits="userSpaceOnUse"><stop stop-color="#57EAEA"/><stop offset="1" stop-color="#2BC9FF"/></linearGradient></defs></svg>